<svg xmlns="http://www.w3.org/2000/svg" viewBox="0 0 800 600" width="100%" height="100%">
  <defs>
    <linearGradient id="bg-gradient" x1="0%" y1="0%" x2="100%" y2="100%">
      <stop offset="0%" style="stop-color:#4a90e2;stop-opacity:1" />
      <stop offset="100%" style="stop-color:#8e44ad;stop-opacity:1" />
    </linearGradient>
  </defs>
  
  <!-- Background -->
  <rect width="100%" height="100%" fill="url(#bg-gradient)"/>
  
  <!-- Devices -->
  <rect x="50" y="200" width="300" height="200" rx="10" fill="#ffffff" opacity="0.9"/>
  <rect x="70" y="220" width="260" height="140" rx="5" fill="#f0f0f0"/>
  <circle cx="200" cy="380" r="10" fill="#dddddd"/>
  
  <rect x="450" y="250" width="150" height="250" rx="10" fill="#ffffff" opacity="0.9"/>
  <rect x="460" y="260" width="130" height="210" rx="5" fill="#f0f0f0"/>
  <circle cx="525" cy="490" r="10" fill="#dddddd"/>
  
  <!-- Graph -->
  <polyline points="100,300 200,250 300,280 400,200 500,230 600,180 700,220" 
            fill="none" stroke="#2ecc71" stroke-width="4"/>
  
  <!-- Data points -->
  <circle cx="100" cy="300" r="6" fill="#e74c3c"/>
  <circle cx="200" cy="250" r="6" fill="#e74c3c"/>
  <circle cx="300" cy="280" r="6" fill="#e74c3c"/>
  <circle cx="400" cy="200" r="6" fill="#e74c3c"/>
  <circle cx="500" cy="230" r="6" fill="#e74c3c"/>
  <circle cx="600" cy="180" r="6" fill="#e74c3c"/>
  <circle cx="700" cy="220" r="6" fill="#e74c3c"/>
  
  <!-- Icons -->
  <text x="150" y="300" font-family="Arial, sans-serif" font-size="40" fill="#3498db">📊</text>
  <text x="350" y="350" font-family="Arial, sans-serif" font-size="40" fill="#f39c12">📈</text>
  <text x="550" y="400" font-family="Arial, sans-serif" font-size="40" fill="#1abc9c">📱</text>
  
  <!-- Text -->
  <text x="400" y="100" font-family="Arial, sans-serif" font-size="40" font-weight="bold" fill="#ffffff" text-anchor="middle">Smarting Goods</text>
  <text x="400" y="150" font-family="Arial, sans-serif" font-size="30" fill="#ffffff" text-anchor="middle">Marketing Software</text>
</svg>
